<svg xmlns="http://www.w3.org/2000/svg" height="24" width="24"><g fill="none" fill-rule="evenodd"><rect fill="#008100" height="18" rx="2" width="24" y="3"/><path d="M2.21 12.307c-.283-.17-.277-.448 0-.614l9.28-5.567c.281-.17.745-.166 1.02 0l9.28 5.567c.283.17.277.448 0 .614l-9.28 5.567c-.281.17-.745.166-1.02 0z" fill="#ffce00"/><g fill-rule="nonzero" transform="translate(7 7)"><circle cx="4.749" cy="4.661" fill="#0a5da7" r="4"/><path d="M1.633 3.832c.23-.23 1.272-.043 3.072.549 1.28.42 2.757 1.35 3.095 1.864l.273.416.676-.674-.274-.416c-.478-.727-2.104-1.75-3.546-2.224C2.682 2.608 1.663 2.425 1.086 3l-.337.337.547.832z" fill="#fff"/></g><rect height="17" opacity=".1" rx="2" stroke="#100f0e" width="23" x=".5" y="3.5"/></g></svg>